<svg width="20" height="20" viewBox="0 0 20 20" fill="none" xmlns="http://www.w3.org/2000/svg">
<path d="M17.8397 6.01969C19.4042 5.72978 19.4542 1.10132 19.4542 1.10132L15.8354 4.10032C14.4258 3.12565 12.7214 2.55584 10.882 2.55584C8.97762 2.55584 7.21821 3.16563 5.78368 4.20029L2.04492 1.10132C2.04492 1.10132 2.0999 6.22462 3.9193 6.02968C2.81467 7.4892 2.15988 9.3086 2.15988 11.2779C2.15988 16.0963 6.06359 20.0001 10.882 20.0001C15.7004 20.0001 19.6041 16.0963 19.6041 11.2779C19.6041 9.3036 18.9493 7.4842 17.8397 6.01969Z" fill="#E56A77"/>
<path d="M9.30692 19.835C4.2386 19.835 0.11996 15.7114 0.11996 10.648C0.11996 8.86864 0.619794 7.1692 1.57448 5.68969C0.129957 4.83998 0.00999669 1.27116 0 0.476422C0 0.296481 0.0999666 0.131536 0.264912 0.0515624C0.429857 -0.0284111 0.624793 -0.00341953 0.759748 0.111542L4.2286 2.98559C5.7331 1.98592 7.48252 1.4561 9.30192 1.4561C11.0563 1.4561 12.7558 1.95093 14.2253 2.88562L17.5792 0.106544C17.7191 -0.00841779 17.9141 -0.0334096 18.074 0.0465639C18.239 0.126537 18.3389 0.291483 18.3389 0.471423C18.3339 1.20618 18.224 4.52008 16.9494 5.55474C17.954 7.06424 18.4839 8.80866 18.4839 10.6431C18.4939 15.7114 14.3702 19.835 9.30692 19.835ZM2.33922 4.93494C2.50417 4.93494 2.65912 5.02491 2.74409 5.16987C2.83406 5.32981 2.82406 5.52975 2.7091 5.6797C1.61946 7.11922 1.04465 8.83865 1.04465 10.648C1.04465 15.2015 4.74843 18.9053 9.30192 18.9053C13.8554 18.9053 17.5592 15.2015 17.5592 10.648C17.5592 8.83365 16.9844 7.11422 15.8897 5.6747C15.7948 5.54474 15.7698 5.3748 15.8248 5.22485C15.8847 5.0749 16.0147 4.96493 16.1746 4.93494C16.8094 4.81498 17.2193 3.10055 17.3542 1.50608L14.5502 3.83031C14.3902 3.96527 14.1603 3.97526 13.9904 3.8553C12.6058 2.90062 10.9864 2.39079 9.29692 2.39079C7.5525 2.39079 5.88305 2.93061 4.46852 3.95027C4.29858 4.07523 4.06365 4.06523 3.89871 3.93028L0.984673 1.50608C1.12963 3.17553 1.56448 4.93994 2.23926 4.93994C2.25425 4.93994 2.27425 4.93994 2.28924 4.93494C2.30424 4.93494 2.32423 4.93494 2.33922 4.93494Z" fill="black"/>
<path d="M4.8086 16.2861C4.55368 16.2861 4.34375 16.0761 4.34375 15.8212C4.34375 13.467 6.23812 11.4827 8.47738 11.4827H10.3118C12.551 11.4827 14.4454 13.422 14.4454 15.7213C14.4454 15.9762 14.2355 16.1861 13.9806 16.1861C13.7256 16.1861 13.5157 15.9762 13.5157 15.7213C13.5157 13.9269 12.0462 12.4124 10.3118 12.4124H8.47738C6.76795 12.4124 5.27344 14.0068 5.27344 15.8212C5.27344 16.0761 5.06351 16.2861 4.8086 16.2861Z" fill="black"/>
<path d="M7.00325 7.82898C6.92827 7.82898 6.8483 7.80898 6.77832 7.769L5.98858 7.32914C5.91361 7.31415 5.83863 7.30415 5.76366 7.30415C5.41877 7.29915 5.09888 7.41911 4.86896 7.65404C4.68901 7.83398 4.39411 7.83398 4.20917 7.65404C4.02923 7.47409 4.02923 7.17919 4.20917 6.99425C4.35912 6.8443 4.53407 6.71435 4.719 6.61938L4.31414 6.39445C4.08921 6.26949 4.00924 5.98459 4.1342 5.75966C4.25916 5.53474 4.54406 5.45476 4.76899 5.57972L6.32847 6.44943C6.70835 6.5494 7.05823 6.74933 7.33814 7.02924C7.50308 7.19419 7.51808 7.4541 7.37812 7.63904C7.28315 7.764 7.1432 7.82898 7.00325 7.82898Z" fill="black"/>
<path d="M11.4713 7.82886C11.3313 7.82886 11.1914 7.76388 11.1014 7.64392C10.9615 7.45898 10.9814 7.19907 11.1414 7.03412C11.4263 6.74922 11.7712 6.55428 12.1511 6.45432L13.7105 5.58461C13.9355 5.45965 14.2204 5.53962 14.3453 5.76455C14.4703 5.98947 14.3903 6.27438 14.1654 6.39933L13.7605 6.62426C13.9455 6.72423 14.1154 6.84919 14.2704 6.99914C14.4503 7.17908 14.4503 7.47398 14.2704 7.65892C14.0904 7.83886 13.7955 7.83886 13.6106 7.65892C13.3757 7.424 13.0608 7.30404 12.7159 7.30903C12.6409 7.30903 12.5609 7.31903 12.4909 7.33403L11.7012 7.77388C11.6262 7.80887 11.5463 7.82886 11.4713 7.82886Z" fill="black"/>
</svg>
